<svg width="42" height="41" viewBox="0 0 42 41" fill="none" xmlns="http://www.w3.org/2000/svg">
<path d="M30.1875 0H11.8125C5.25 0 0 5.125 0 11.5312V29.4688C0 35.875 5.25 41 11.8125 41H21V25.625H15.75C14.9625 25.625 14.4375 25.1125 14.4375 24.3438V20.5C14.4375 19.7313 14.9625 19.2188 15.75 19.2188H21V15.375C21 11.1469 23.2313 7.6875 27.5625 7.6875H32.8125C33.6 7.6875 34.125 8.2 34.125 8.96875V12.8125C34.125 13.5813 33.6 14.0938 32.8125 14.0938H27.825C27.6938 14.0938 27.5625 14.2219 27.5625 14.35V19.2188H34.125C34.5187 19.2188 34.9125 19.475 35.175 19.7312C35.4375 19.9875 35.4375 20.5 35.3062 20.8844L32.6812 24.7281C32.55 25.3687 32.025 25.625 31.5 25.625H27.5625V41H30.1875C36.75 41 42 35.875 42 29.4688V11.5312C42 5.125 36.75 0 30.1875 0Z" fill="white"/>
</svg>
