<svg width="42" height="41" viewBox="0 0 42 41" fill="none" xmlns="http://www.w3.org/2000/svg">
<path d="M21 0C26.7057 0 27.4176 0.0204999 29.6562 0.123C31.8927 0.2255 33.4152 0.56785 34.755 1.07625C36.141 1.59695 37.3086 2.30215 38.4762 3.4399C39.544 4.46469 40.3703 5.70431 40.8975 7.0725C41.4162 8.37835 41.769 9.86665 41.874 12.0499C41.9727 14.2352 42 14.9302 42 20.5C42 26.0698 41.979 26.7648 41.874 28.9501C41.769 31.1333 41.4162 32.6196 40.8975 33.9275C40.3718 35.2964 39.5454 36.5364 38.4762 37.5601C37.4261 38.6022 36.1563 39.4087 34.755 39.9237C33.4173 40.4301 31.8927 40.7745 29.6562 40.877C27.4176 40.9734 26.7057 41 21 41C15.2943 41 14.5824 40.9795 12.3438 40.877C10.1073 40.7745 8.5848 40.4301 7.245 39.9237C5.84288 39.4102 4.57281 38.6034 3.5238 37.5601C2.45575 36.5355 1.62946 35.2958 1.1025 33.9275C0.5817 32.6216 0.231 31.1333 0.126 28.9501C0.0272999 26.7648 0 26.0698 0 20.5C0 14.9302 0.0209999 14.2352 0.126 12.0499C0.231 9.8646 0.5817 8.3804 1.1025 7.0725C1.628 5.70347 2.45449 4.46351 3.5238 3.4399C4.57311 2.39692 5.8431 1.59025 7.245 1.07625C8.5848 0.56785 10.1052 0.2255 12.3438 0.123C14.5824 0.0266499 15.2943 0 21 0ZM21 10.25C18.2152 10.25 15.5445 11.3299 13.5754 13.2522C11.6062 15.1744 10.5 17.7815 10.5 20.5C10.5 23.2185 11.6062 25.8256 13.5754 27.7478C15.5445 29.6701 18.2152 30.75 21 30.75C23.7848 30.75 26.4555 29.6701 28.4246 27.7478C30.3938 25.8256 31.5 23.2185 31.5 20.5C31.5 17.7815 30.3938 15.1744 28.4246 13.2522C26.4555 11.3299 23.7848 10.25 21 10.25ZM34.65 9.7375C34.65 9.05788 34.3734 8.4061 33.8812 7.92554C33.3889 7.44498 32.7212 7.175 32.025 7.175C31.3288 7.175 30.6611 7.44498 30.1688 7.92554C29.6766 8.4061 29.4 9.05788 29.4 9.7375C29.4 10.4171 29.6766 11.0689 30.1688 11.5495C30.6611 12.03 31.3288 12.3 32.025 12.3C32.7212 12.3 33.3889 12.03 33.8812 11.5495C34.3734 11.0689 34.65 10.4171 34.65 9.7375ZM21 14.35C22.6709 14.35 24.2733 14.9979 25.4548 16.1513C26.6363 17.3046 27.3 18.8689 27.3 20.5C27.3 22.1311 26.6363 23.6954 25.4548 24.8487C24.2733 26.0021 22.6709 26.65 21 26.65C19.3291 26.65 17.7267 26.0021 16.5452 24.8487C15.3637 23.6954 14.7 22.1311 14.7 20.5C14.7 18.8689 15.3637 17.3046 16.5452 16.1513C17.7267 14.9979 19.3291 14.35 21 14.35Z" fill="white"/>
</svg>
