<svg width="271" height="81" viewBox="0 0 271 81" fill="none" xmlns="http://www.w3.org/2000/svg">
<path fill-rule="evenodd" clip-rule="evenodd" d="M145.549 57.619H174.494C181.426 57.5926 183.43 49.7635 183.403 41.4204C183.377 30.797 178.896 25.5117 172.846 25.4194H145.549V57.619ZM152.377 51.0025L152.337 35.8451L148.673 32.0359H170.447C173.716 32.0359 175.983 34.2502 176.391 38.9161C176.55 40.7482 176.589 43.4897 176.352 45.269C175.97 48.1951 174.731 50.9893 171.396 51.0288H152.364L152.377 51.0025Z" fill="white"/>
<path fill-rule="evenodd" clip-rule="evenodd" d="M271 57.5926H264.199V48.6696L267.863 44.8605L237.72 44.8341V57.619H230.932V25.4063H248.817C257.029 25.4194 270.908 23.851 270.987 39.4697V57.6058L271 57.5926ZM264.225 38.2176C264.212 33.4331 261.075 32.0228 256.146 32.036H237.733V38.1912H264.225V38.2176Z" fill="white"/>
<path fill-rule="evenodd" clip-rule="evenodd" d="M188.307 41.8948V57.6058H195.108V48.6827L191.443 44.8604L208.881 44.8077L218.318 57.5794H226.543L217.303 45.1504C222.602 44.2541 226.925 41.2885 226.819 34.8697C226.727 29.0308 221.85 25.4194 216.196 25.3799L188.333 25.4326V41.908L188.307 41.8948ZM195.173 32.0359L213.349 32.0096C217.237 32.0096 219.887 31.6537 220.032 35.0147C219.992 38.837 216.091 38.2834 212.308 38.2834L195.187 38.2307V32.0228L195.173 32.0359Z" fill="white"/>
<path fill-rule="evenodd" clip-rule="evenodd" d="M101 25.4062H107.801L107.788 43.1997C107.748 48.3532 110.701 50.6334 115.722 50.9893L137.984 51.0156L134.32 47.2065V25.3799L141.081 25.4458V57.6321L116.513 57.6058C109.066 57.6058 101.079 55.3915 101.013 43.5556V25.4194L101 25.4062Z" fill="white"/>
<path d="M79.7356 44.9341C78.223 39.4713 75.1403 40.6838 75.4159 35.5113C74.9223 30.3065 74.9608 28.2555 73.9353 25.5209C73.1086 23.3216 72.6984 23.6312 71.705 21.3803C70.859 19.4712 72.1152 19.1616 72.4869 17.9814C73.3008 15.3757 70.3463 15.8272 67.0968 15.1049C64.6486 14.5631 60.9377 13.4215 58.4189 13.5118C52.3687 13.7182 49.9076 16.8011 47.7926 17.7621C47.0236 18.1104 44.4663 19.7485 43.9728 21.7737C43.3704 24.2181 46.639 22.883 47.0876 26.7399C47.4465 29.8034 48.0618 31.577 47.7478 35.2533C47.2607 40.9224 47.1838 38.9231 44.1459 43.0701C42.6974 45.0502 42.0693 47.4945 43.7805 51.0676C44.4215 52.4091 43.3704 56.1176 40.9029 57.6848C39.1916 58.7684 36.4485 59.8455 33.9041 57.2914C30.6419 54.0086 34.263 53.8151 34.4297 48.9844C34.5643 44.9341 29.2511 40.3355 28.0206 38.4523C24.8865 33.6538 39.0506 33.8666 37.6278 31.4351C34.6604 26.3529 17.1315 29.8357 15.5613 35.1565C14.4205 39.0263 16.2727 41.2449 16.7726 44.7535C16.9264 45.8177 16.8431 49.552 15.1062 47.5461C11.4018 43.2765 11.0685 36.8786 11.139 31.332C11.2287 24.4051 14.0936 15.7563 20.2207 10.6869C26.8413 5.19834 33.6734 3.5795 40.8324 3.07644C46.953 2.65077 53.4006 3.67625 59.9892 6.86878C63.5398 8.58436 63.6872 9.37766 64.264 9.11968C64.9947 8.7972 63.6295 7.43634 61.0787 5.8304C55.0093 2.1348 47.876 0 40.2555 0C19.8297 0 2.961 15.3048 0.3525 35.1372C0.160228 36.7947 0.0256364 38.6393 0 40.5613C0.0128182 52.7187 5.3516 63.6184 13.786 71.0354C13.9077 71.1386 14.0295 71.2483 14.1513 71.3515L14.3115 71.4869C21.3295 77.4269 30.3855 81 40.2748 81C46.7031 81 52.7789 79.4908 58.1754 76.8013L58.2267 76.7755C58.3997 76.6917 58.5727 76.6014 58.7458 76.5111C58.9637 76.395 59.188 76.2789 59.4059 76.1628C59.4444 76.1435 59.4828 76.1241 59.5213 76.0983C69.9489 70.3711 77.5821 60.1357 79.8317 47.9976C79.8445 47.9267 79.8574 47.8622 79.8702 47.7912C80.0689 46.6948 80.0496 46.0434 79.742 44.9341M24.5084 70.9516C22.0217 72.622 13.7347 69.4488 8.53051 62.6252C3.666 56.2401 6.98592 55.4468 7.90883 56.0209C11.1134 58.0138 11.671 60.8451 15.8625 61.1547C22.5023 62.3285 24.5084 61.632 24.5084 62.5414C24.5084 63.4508 22.0601 63.7023 22.2588 64.5085C22.4575 65.3211 24.7327 65.1534 24.7071 66.2886C24.6814 67.4753 21.4192 66.6368 21.2846 67.8107C21.1949 68.6169 26.0466 69.9132 24.5084 70.9516ZM65.3728 19.3874C66.2893 19.6905 66.5072 21.1674 66.0009 21.5673C65.3664 22.0639 64.4371 20.9869 64.3602 20.1871C64.3217 19.8324 64.6486 19.1487 65.3792 19.3938L65.3728 19.3874ZM61.8991 25.6047C63.3988 24.7921 63.0207 23.7731 63.0207 23.7731C62.9886 23.3281 62.4823 22.9088 62.1618 22.6251C61.9183 22.4122 63.1424 22.0639 63.8154 23.7408C64.6037 25.7079 66.6738 23.8247 68.2056 24.8501C68.6863 25.1726 69.0132 25.8434 69.0003 26.5722C71.0128 27.2881 72.5061 28.7908 73.8264 30.8224C73.9738 31.0998 73.8777 31.448 73.6021 31.5964C73.3265 31.7447 72.9804 31.648 72.833 31.3707C71.7306 29.6744 70.4296 28.3394 68.7119 27.688C68.635 27.8298 68.5453 27.9653 68.4363 28.0943C68.3402 28.2039 68.2248 28.3007 68.0838 28.3781C69.0773 29.0746 69.6092 29.8808 70.8013 31.5577C70.9679 31.8221 70.8846 32.1768 70.6218 32.3445C70.3591 32.5122 70.0066 32.4284 69.8399 32.1639C68.4299 30.1839 68.0838 29.5583 66.4303 28.7263C65.0395 28.765 63.3732 28.4426 62.5592 28.2168C61.2325 27.8492 60.88 27.5848 60.7518 27.2042C60.6237 26.8302 60.5532 26.34 61.8991 25.6112V25.6047ZM57.355 24.4632C57.4127 24.3213 57.5281 23.586 57.9639 23.3023C58.7778 22.7734 59.8994 22.7024 60.3929 22.9346C60.6365 23.0507 60.5211 23.3023 60.2135 23.4119C59.9058 23.5215 58.5792 23.3216 57.9062 24.489C57.464 25.2565 57.2973 24.6051 57.3614 24.4632H57.355ZM53.3686 21.0578C53.5993 20.7869 54.3107 20.5418 54.644 21.2384C55.0606 22.1155 54.1633 23.2958 53.5224 23.2055C52.7276 23.0959 52.8494 21.6705 53.3686 21.0578ZM52.0162 28.5457C52.9584 26.9527 55.631 27.7589 55.5028 25.6434C55.3938 23.8376 56.6436 23.6183 56.5154 23.9214C56.3488 24.3148 56.0668 24.9082 56.2334 25.3274C56.2334 25.3274 56.3296 26.4109 58.0344 26.4948C59.5597 26.5657 59.7072 27.043 59.752 27.4364C59.7969 27.8298 59.5918 28.2233 58.5535 29.1327C57.9639 29.6422 56.759 30.5516 55.5797 31.132C54.08 32.1381 53.7851 33.8344 53.4839 35.4919C53.4647 35.8079 53.1955 36.0466 52.8815 36.0272C52.5674 36.0079 52.3303 35.737 52.3495 35.421C52.6123 33.9698 52.8558 32.7122 53.516 31.6544C53.4006 31.6351 53.2981 31.6093 53.1955 31.5641C53.093 31.519 52.9968 31.4674 52.9007 31.4093C51.5996 32.8089 50.9716 34.3503 50.0294 36.8399C49.9205 37.1366 49.5936 37.2849 49.2988 37.1753C49.004 37.0656 48.8565 36.7367 48.9655 36.44C49.991 33.7376 50.696 32.0866 52.1124 30.5838C51.7214 29.9002 51.7022 29.0811 52.0162 28.5457ZM50.5037 50.1195C49.1385 50.2098 46.7672 49.6293 46.1519 47.1527C45.4982 44.5342 47.4722 43.0444 48.5361 42.5026C50.164 41.6706 53.6121 40.9482 55.9194 41.0643C58.3228 41.1869 64.7896 42.5929 65.2831 44.5148C65.5458 45.5468 64.4307 46.4433 63.5013 46.2756C62.8797 46.1659 59.2777 45.2114 58.765 45.1856C53.5544 44.8954 55.2464 49.797 50.4973 50.1195H50.5037ZM73.5316 53.196C71.8844 53.8151 69.1221 54.8664 66.9238 54.5052C64.6422 54.1311 58.5984 52.0866 58.3292 50.1969C58.1818 49.1843 59.3482 48.4426 60.2199 48.7006C60.8031 48.8748 64.1423 50.1711 64.6357 50.255C69.59 51.0869 69.2695 43.9795 73.8456 44.1859C75.1595 44.244 77.3706 45.0566 77.6911 47.4945C78.0372 50.0744 74.6019 52.7896 73.5252 53.196H73.5316Z" fill="white"/>
</svg>
